<?xml version="1.0" standalone="no"?>
<!DOCTYPE svg PUBLIC "-//W3C//DTD SVG 20010904//EN"
 "http://www.w3.org/TR/2001/REC-SVG-20010904/DTD/svg10.dtd">
<svg version="1.0" xmlns="http://www.w3.org/2000/svg"
 width="340.000000pt" height="270.000000pt" viewBox="0 0 340.000000 270.000000"
 preserveAspectRatio="xMidYMid meet">
<metadata>
Created by potrace 1.15, written by Peter Selinger 2001-2017
</metadata>
<g transform="translate(0.000000,270.000000) scale(0.100000,-0.100000)"
fill="#000000" stroke="none">
<path d="M978 2153 l-3 -78 -77 -3 -78 -3 0 -79 0 -80 -80 0 -80 0 0 -240 0
-240 80 0 80 0 0 -80 0 -80 80 0 80 0 0 -80 0 -80 80 0 80 0 0 -80 0 -80 80 0
80 0 0 -80 0 -80 80 0 80 0 0 -80 0 -80 80 0 80 0 0 -80 0 -80 80 0 80 0 0 80
0 80 80 0 80 0 0 80 0 80 80 0 80 0 0 80 0 80 80 0 80 0 0 80 0 80 80 0 79 0
3 78 3 77 78 3 c42 2 78 6 78 10 2 11 2 43 1 100 l-2 53 -77 -3 -78 -3 -3 -77
-3 -77 -77 -3 -77 -3 -3 -77 -3 -78 -79 0 -80 0 0 -80 0 -80 -80 0 -80 0 0
-80 0 -80 -80 0 -80 0 0 -80 0 -80 -80 0 -80 0 0 80 0 80 -80 0 -80 0 0 80 0
80 -80 0 -80 0 0 80 0 80 -80 0 -80 0 0 80 0 80 -80 0 -80 0 0 80 0 80 -80 0
-80 0 0 240 0 239 78 3 77 3 3 78 3 77 239 0 240 0 0 -80 0 -80 80 0 80 0 0
-80 0 -80 80 0 80 0 0 80 0 80 80 0 80 0 0 80 0 80 240 0 239 0 3 -77 3 -78
78 -3 77 -3 1 -222 c1 -122 2 -229 3 -237 1 -12 17 -15 81 -15 l80 0 3 237 2
237 -82 3 -83 3 1 78 1 77 -84 0 -83 0 0 80 0 80 -240 0 -240 0 0 -80 0 -80
-80 0 -80 0 0 -80 0 -80 -80 0 -80 0 0 80 0 80 -80 0 -80 0 0 80 0 80 -240 0
-239 0 -3 -77z"/>
</g>
</svg>
